<svg xmlns="http://www.w3.org/2000/svg" viewBox="0 0 4096 4096"><defs><style>.cls-1,.cls-2{fill:#fff;}.cls-2{font-size:200px;font-family:MilkywayDEMO, Milkyway DEMO;letter-spacing:0.01em;}.cls-3{letter-spacing:-0.02em;}.cls-4{letter-spacing:-0.02em;}.cls-5{letter-spacing:-0.08em;}.cls-6{letter-spacing:-0.05em;}</style></defs><g id="text"><polygon class="cls-1" points="1399.02 2471.25 1464.22 2247.6 1451.24 2254.21 1436.9 2254.61 1415.46 2250.9 1400.8 2241.93 1384.52 2229.18 1366.11 2209.73 1352.31 2191.66 1335.85 2171.73 1283.09 2354.86 1318.68 2396.57 1348.13 2430.04 1370.11 2455.58 1394.63 2483.57 1399.02 2471.25"/><path class="cls-1" d="M1842.65,2023.47c18.37-79.65-31.25-159.13-110.82-177.52s-159,31.27-177.33,110.93a148.13,148.13,0,0,0,55.26,151.69l-3.48-.21-11.22,3-16.74,5.43-19,9.87-11.85,8.42-9.82,7.65c-9.82,7.66-18.86,25.41-18.86,25.41L1490.34,2125l-35.28-48.46-24.65-35.46-14-22.46-5.51-13.68-1.36-10.23.82-11.6L1445.89,1845l7.47-32.38-1.49-9.65-7.48-6.07-8-1.85-8.14,3.08-5.74,6.11-5.43,7.42-9.46,19.52-42.53,101.16-8.41,25.72-4.8,20.84,2.26,19.74,2.84,11.82,14.16,21.87,63.28,90.9,24.42,31.06,7.65,17.89.22,20.52-6.06,12.86-11.71,9.69-11.77,3.48-14.39-2.08-9.72-3.49-13.35-9.28-10.72-9.92-40.61-44.11-47-56.75-23-32-18.54-29.71-10.27-25.32-3.61-13.86,1.69-23.44,14.6-63.32,11.81-35.09,25-76.08,21.26-62.67,10.59-29.8,17.47-30.07,21.35-33.51,25.47-24.49,35.6-22.78,39-13.31,31.21-6.43,39.59-5.11,37.23,2.41,63.12,8.38,49.38,11.42,47.72,16,39,29.48,28,36.86,23.83,39,15.06,39.44,16.56,57.15,18.49,51.4,20.53,50.63,26.83,34.11,34.92,28.53,28.31,19.56,36.46,16.49.05,10.55-4.58,22.51-4,22.64-2.31,26.13-1,28.3-19.18-8.15-32.61-14.36-25.7-12.14-29.67-13.68-26.6-13.58-15.69-9.83-12.62-9.74"/><ellipse class="cls-1" cx="1698.57" cy="1990.17" rx="100.79" ry="100.9"/><path class="cls-1" d="M2241.26,2090.49l31.31-1.45,42.43,6.71,32.74,7.57,28,9.87,29.9,18.07,23.12,23.32,23.15,41.94,21,53.84,12.12,71,11,65.17,6,65.25-.05,37.82-.46,23.45-2,19.39-4.43,13.85-7.92,7.47-12.26,2.13-11.95-2.76-8-7.43-7.23-11.59-3.17-29.26-1.62-33.24-3.26-50.35-8-53.94-9.22-40.57-7.78-25.36-9.27-18.89-8.91-7-11.09,2.4-4.84,7.56-3.17,19.11-1.54,44.29.67,93.79,2.79,178.6s-5.75,6.11-40.31,21.69l-34.56,15.57-31.8,14.35,3.58-45-.73-31.79-2.3-22.24-4.57-9.74-5.83-6.93-7.38-2.94-9.36.32-9.86,5.16-4.53,8.87-5.61,21.65-4.71,31.15-9.19,66.71-24.47,6.74-19.36,6.07-26.51,7.51-26.83,6.21-18.43,3.38-5.86-2.8,32.23-249.88,12.09-92.69,6.2-37.63.41-9.83-1.13-5.84-3.44-3.9-4.16-3.44-4.43-2.26-8.23-1.91-6,1.72-6.65,4.67-39.54,64-59.22,109.08-18.87,25.4-12.3,7.7-23.48,5.12-12.37-5.43-5.41-14.18.36-12.32,12-30.7,86.46-197.66,20.31-42.43,18.6-32.29,23.07-35.59,18.41-18.07,18.05-13.81,26.78-16.75,27.78-10.32,28.32-4.62Z"/><path class="cls-1" d="M2762.94,1965l-3.17,13.72-6.47,14.62c-6.47,14.63-80.76,164.88-80.76,164.88l-28.41,56.06-17.2,20.83-11.8,6.26-16.56,3.92-14.66-.9-13.25-4.31-12.35-10.91-7.55-12.91,1.27-10.87c1.26-10.86.31-6.74.31-6.74l9.91-43,29.32-78.79,27.74-77.3,8.37-30.93,1.05-15.26-2.22-9.19c-2.22-9.2-9.09-17-9.09-17L2598,1896.07l-41.48-67.26-8.14-13-9.81-8.47-6.88.27-9.45,3.4-6,7.29-3.17,11-1.54,20.11v56.42l-1,58.06.75,195.49,4.47,53.12,6.78,51.17-2.85,12.37-7.55,3.21-6.43-7.07-7.77-41.48-4-17.66c-4-17.66-7.65-26-7.65-26l-12.8-27.76-11.53-22.51-15.42-19.06-14.88-13.36-18.28-14.77-21.67-8.11-20.31-5.93-27.79-6.42a159.56,159.56,0,0,0,70.1-99.13c19.87-86.17-33.79-172.13-119.86-192s-171.94,33.82-191.81,120a160.21,160.21,0,0,0,61.34,165.24l-18,6.62-20.49,8.29-14,7.29-22.56,17.11-13.84,11.69-12.76,15,.41-17.89,2.69-240,.73-40.76-3.44-20-8.82-10.1-13.84-3.08-9.91,1.32-17,6.61-40.76,21-38.81,23.27-10.36-6.11-5.29-17.35-26.07-67.41L1869.41,1706l88.8-44,102.47-57.55,68.9-27.48,27.32-3,53.2-5.06,103.1-8.31,96.35,2.94,66.64,4.86,40.34,9.32,32.61,14.36,38.32,29.94,27.54,25.59,18.82,28.53,111,187.49,12.53,28.94,8.36,33.55-.09,19.2Z"/><ellipse class="cls-1" cx="2257.83" cy="1934.03" rx="118.9" ry="119.02"/><path class="cls-1" d="M1657.35,2139.38l24.74.14,32.71,3.22,26.87,4.35,18.82,4.35,21.17,4.89,19.45,7,15.24,9.1,16.37,15,13.08,18.52,68.2,160.86,21.43,52.08,28.36,46.24s6.2,2.67,7.42,13.49l1.22,10.83-1,12.18-4.61,10.58-14.53,7.94-13.61,0-13.08-10.46L1911,2484.48s-65.13-120.46-72-138.81l-6.92-18.34-6.74-8.37-9.47-4.58-9.53-1.68-7.87,1.91L1790,2322l-3.77,13.39,20.07,162.76,8.63,96.87,6.46,106.28-56.6-13.08L1732,2677.69l-19.73-8.47,3.77-67.34-1.09-19.47-6-8.83-7.56-4.85-8.82-2-9.18,2.21-8.51,7.34-6,7.29L1657.66,2651l-33.88-11.55-16.69-8.2-22.26-8.24L1561,2610.7l-4.48-4.75,20-138,14.63-98.31,6.33-27.47,2.35-18.26-3.12-10.65-10.08-7.29-13.3,1.27-13.17,8.74-17.78,44.87-19.36,46.37-19.1,53.26-6.33,14-7.42,10.69-10.68,8.69-12.08,4-12.48-2.26-9.82-8.47-3.3-12.55-.41-14.35,21.72-78.07,33.85-95.73,18.69-43.43,13.76-26.58,20.35-30,22.35-19,38-17.25Z"/><ellipse class="cls-1" cx="2245.59" cy="1325.08" rx="179.25" ry="179.44"/><ellipse class="cls-1" cx="1641.41" cy="1358.44" rx="179.25" ry="179.44"/><path class="cls-1" d="M1998.64,2780.91a937.79,937.79,0,0,1-211.44-24.3c-123.24-28.48-237.24-80.3-338.84-154A940.75,940.75,0,0,1,1074.7,2004c-21.63-123.71-18.17-249,10.28-372.33s80.19-237.47,153.81-339.17a939.27,939.27,0,0,1,598-374.08c123.6-21.65,248.76-18.19,372,10.29s237.24,80.29,338.84,154a940.79,940.79,0,0,1,373.66,598.61c21.63,123.71,18.17,249-10.28,372.33s-80.19,237.47-153.81,339.17a937.15,937.15,0,0,1-758.58,388.09Zm-2.21-1764.76c-152.81,0-302.92,42.76-435.72,125.84-187,116.94-317.22,299.77-366.81,514.8C1091.52,2100.7,1369,2545.22,1812.37,2647.7c214.77,49.63,436,12.57,622.93-104.36s317.22-299.77,366.81-514.81l54.46,12.56-54.46-12.56c102.38-443.9-175.07-888.42-618.47-990.9A831.14,831.14,0,0,0,1996.43,1016.15Z"/><text class="cls-2" transform="translate(867.79 3056.47)">SISI S<tspan class="cls-3" x="490.39" y="0">O</tspan><tspan x="602.79" y="0">TE </tspan><tspan class="cls-4" x="863.58" y="0">F</tspan><tspan x="952.59" y="0">OUND</tspan><tspan class="cls-5" x="1423.38" y="0">A</tspan><tspan x="1525.98" y="0">TION </tspan><tspan class="cls-6" x="1985.97" y="0">L</tspan><tspan x="2073.17" y="0">TD</tspan></text><path class="cls-1" d="M1536.26,3357.79l70.84-154h11.22l70.84,154h-12.1l-66.88-147H1615l-66.66,147Zm26-43.34L1566,3305h92.18l3.74,9.46Z"/><path class="cls-1" d="M1713.58,3357.79V3194.55h11v163.24Z"/><path class="cls-1" d="M1771,3357.79V3194.55h11v163.24Z"/><path class="cls-1" d="M1888.47,3357.79v-154h103v10.12h-91.74v143.88Zm9.9-68v-10.12h83.38v10.12Z"/><path class="cls-1" d="M2064.25,3358.67q-16.5,0-29.37-7.48a55.33,55.33,0,0,1-20.46-20.68q-7.59-13.2-7.59-30.14,0-17.16,7.59-30.25a55.62,55.62,0,0,1,20.46-20.57q12.87-7.49,29.37-7.48a57.92,57.92,0,0,1,29.48,7.48,54.46,54.46,0,0,1,20.46,20.57q7.48,13.1,7.48,30.25,0,17-7.48,30.14a54.19,54.19,0,0,1-20.46,20.68A57.92,57.92,0,0,1,2064.25,3358.67Zm0-9.9a47,47,0,0,0,23.76-6.05,42.47,42.47,0,0,0,16.5-17q5.94-11,5.94-25.3,0-14.52-5.94-25.41A42.63,42.63,0,0,0,2088,3258a47,47,0,0,0-23.76-6.05,46.38,46.38,0,0,0-23.65,6.05,43.71,43.71,0,0,0-16.5,16.94q-6,10.89-6,25.41a51.68,51.68,0,0,0,6,25.3,43.53,43.53,0,0,0,16.5,17A46.38,46.38,0,0,0,2064.25,3348.77Z"/><path class="cls-1" d="M2155.77,3357.79V3243h10.56v31.46l-1.1-3.52a40.65,40.65,0,0,1,16.28-21.34q11.44-7.49,28.6-7.48v10.78a8.4,8.4,0,0,1-1.32-.11,8.4,8.4,0,0,0-1.32-.11q-19.14,0-29.92,12T2166.77,3298v59.84Z"/><path class="cls-1" d="M2276.77,3357.79l70.84-154h11.22l70.84,154h-12.1l-66.88-147h4.84l-66.66,147Zm26-43.34,3.74-9.46h92.18l3.74,9.46Z"/><path class="cls-1" d="M2454.09,3357.79V3194.55h11v163.24Z"/><path class="cls-1" d="M2511.5,3357.79V3194.55h11v163.24Z"/></g></svg>